<svg width="46" height="16" viewBox="0 0 46 16" fill="none" xmlns="http://www.w3.org/2000/svg">
<path d="M27.499 5.96387C27.499 5.69368 27.4453 5.43978 27.3379 5.20215C27.2305 4.96126 27.084 4.75293 26.8984 4.57715C26.7161 4.39811 26.5029 4.25814 26.2588 4.15723C26.0179 4.05306 25.764 4.00098 25.4971 4.00098H20.585C20.637 3.85124 20.7103 3.71452 20.8047 3.59082C20.8991 3.46712 21.0081 3.36133 21.1318 3.27344C21.2555 3.18555 21.3906 3.11882 21.5371 3.07324C21.6868 3.02441 21.8415 3 22.001 3H25.4971C25.9105 3 26.2995 3.07975 26.6641 3.23926C27.0286 3.39551 27.346 3.60872 27.6162 3.87891C27.8896 4.14909 28.1045 4.46647 28.2607 4.83105C28.4202 5.19564 28.5 5.58464 28.5 5.99805V9.49902C28.5 9.65853 28.4756 9.81315 28.4268 9.96289C28.3812 10.1094 28.3145 10.2445 28.2266 10.3682C28.1387 10.4919 28.0329 10.6009 27.9092 10.6953C27.7855 10.7897 27.6488 10.863 27.499 10.915V5.96387ZM19.9746 13C19.7793 13 19.5921 12.9609 19.4131 12.8828C19.234 12.8014 19.0762 12.694 18.9395 12.5605C18.806 12.4238 18.6986 12.266 18.6172 12.0869C18.5391 11.9079 18.5 11.7207 18.5 11.5254V6.47656C18.5 6.27799 18.5391 6.09082 18.6172 5.91504C18.6986 5.736 18.806 5.57975 18.9395 5.44629C19.0762 5.30957 19.2324 5.20215 19.4082 5.12402C19.5872 5.04264 19.776 5.00195 19.9746 5.00195H25.0234C25.222 5.00195 25.4108 5.04264 25.5898 5.12402C25.7689 5.20215 25.9251 5.30794 26.0586 5.44141C26.1921 5.57487 26.2979 5.73112 26.376 5.91016C26.4574 6.08919 26.498 6.27799 26.498 6.47656V11.5254C26.498 11.724 26.4574 11.9128 26.376 12.0918C26.2979 12.2676 26.1904 12.4238 26.0537 12.5605C25.9202 12.694 25.764 12.8014 25.585 12.8828C25.4092 12.9609 25.222 13 25.0234 13H19.9746ZM24.999 11.999C25.0674 11.999 25.1309 11.986 25.1895 11.96C25.2513 11.9339 25.305 11.8981 25.3506 11.8525C25.3994 11.807 25.4368 11.7549 25.4629 11.6963C25.4889 11.6344 25.502 11.5693 25.502 11.501V6.50098C25.502 6.43262 25.4889 6.36751 25.4629 6.30566C25.4368 6.24382 25.401 6.1901 25.3555 6.14453C25.3099 6.09896 25.2562 6.06315 25.1943 6.03711C25.1325 6.01107 25.0674 5.99805 24.999 5.99805H19.999C19.9307 5.99805 19.8656 6.01107 19.8037 6.03711C19.7451 6.06315 19.693 6.10059 19.6475 6.14941C19.6019 6.19499 19.5661 6.2487 19.54 6.31055C19.514 6.36914 19.501 6.43262 19.501 6.50098V11.501C19.501 11.5693 19.514 11.6344 19.54 11.6963C19.5661 11.7549 19.6019 11.807 19.6475 11.8525C19.693 11.8981 19.7451 11.9339 19.8037 11.96C19.8656 11.986 19.9307 11.999 19.999 11.999H24.999Z" fill="black" fill-opacity="0.8956"/>
</svg>
