<svg width="46" height="16" viewBox="0 0 46 16" fill="none" xmlns="http://www.w3.org/2000/svg">
<path d="M23 8.70801L18.8545 12.8535C18.7568 12.9512 18.6396 13 18.5029 13C18.3597 13 18.2393 12.9528 18.1416 12.8584C18.0472 12.7607 18 12.6403 18 12.4971C18 12.3604 18.0488 12.2432 18.1465 12.1455L22.292 8L18.1465 3.85449C18.0488 3.75684 18 3.63802 18 3.49805C18 3.42969 18.013 3.36458 18.0391 3.30273C18.0651 3.24089 18.1009 3.1888 18.1465 3.14648C18.1921 3.10091 18.2458 3.0651 18.3076 3.03906C18.3695 3.01302 18.4346 3 18.5029 3C18.6396 3 18.7568 3.04883 18.8545 3.14648L23 7.29199L27.1455 3.14648C27.2432 3.04883 27.362 3 27.502 3C27.5703 3 27.6338 3.01302 27.6924 3.03906C27.7542 3.0651 27.8079 3.10091 27.8535 3.14648C27.8991 3.19206 27.9349 3.24577 27.9609 3.30762C27.987 3.36621 28 3.42969 28 3.49805C28 3.63802 27.9512 3.75684 27.8535 3.85449L23.708 8L27.8535 12.1455C27.9512 12.2432 28 12.3604 28 12.4971C28 12.5654 27.987 12.6305 27.9609 12.6924C27.9349 12.7542 27.8991 12.8079 27.8535 12.8535C27.8112 12.8991 27.7591 12.9349 27.6973 12.9609C27.6354 12.987 27.5703 13 27.502 13C27.362 13 27.2432 12.9512 27.1455 12.8535L23 8.70801Z" fill="black" fill-opacity="0.8956"/>
</svg>
