<svg width="46" height="16" viewBox="0 0 46 16" fill="none" xmlns="http://www.w3.org/2000/svg">
<path d="M19.4746 13C19.2793 13 19.0921 12.9609 18.9131 12.8828C18.734 12.8014 18.5762 12.694 18.4395 12.5605C18.306 12.4238 18.1986 12.266 18.1172 12.0869C18.0391 11.9079 18 11.7207 18 11.5254V4.47461C18 4.2793 18.0391 4.09212 18.1172 3.91309C18.1986 3.73405 18.306 3.5778 18.4395 3.44434C18.5762 3.30762 18.734 3.2002 18.9131 3.12207C19.0921 3.04069 19.2793 3 19.4746 3H26.5254C26.7207 3 26.9079 3.04069 27.0869 3.12207C27.266 3.2002 27.4222 3.30762 27.5557 3.44434C27.6924 3.5778 27.7998 3.73405 27.8779 3.91309C27.9593 4.09212 28 4.2793 28 4.47461V11.5254C28 11.7207 27.9593 11.9079 27.8779 12.0869C27.7998 12.266 27.6924 12.4238 27.5557 12.5605C27.4222 12.694 27.266 12.8014 27.0869 12.8828C26.9079 12.9609 26.7207 13 26.5254 13H19.4746ZM26.501 11.999C26.5693 11.999 26.6328 11.986 26.6914 11.96C26.7533 11.9339 26.807 11.8981 26.8525 11.8525C26.8981 11.807 26.9339 11.7549 26.96 11.6963C26.986 11.6344 26.999 11.5693 26.999 11.501V4.49902C26.999 4.43066 26.986 4.36719 26.96 4.30859C26.9339 4.24674 26.8981 4.19303 26.8525 4.14746C26.807 4.10189 26.7533 4.06608 26.6914 4.04004C26.6328 4.014 26.5693 4.00098 26.501 4.00098H19.499C19.4307 4.00098 19.3656 4.014 19.3037 4.04004C19.2451 4.06608 19.193 4.10189 19.1475 4.14746C19.1019 4.19303 19.0661 4.24674 19.04 4.30859C19.014 4.36719 19.001 4.43066 19.001 4.49902V11.501C19.001 11.5693 19.014 11.6344 19.04 11.6963C19.0661 11.7549 19.1019 11.807 19.1475 11.8525C19.193 11.8981 19.2451 11.9339 19.3037 11.96C19.3656 11.986 19.4307 11.999 19.499 11.999H26.501Z" fill="black" fill-opacity="0.8956"/>
</svg>
