<svg width="46" height="16" viewBox="0 0 46 16" fill="none" xmlns="http://www.w3.org/2000/svg">
<path d="M18.498 8C18.4297 8 18.3646 7.98698 18.3027 7.96094C18.2441 7.9349 18.1921 7.89909 18.1465 7.85352C18.1009 7.80794 18.0651 7.75586 18.0391 7.69727C18.013 7.63542 18 7.57031 18 7.50195C18 7.43359 18.013 7.37012 18.0391 7.31152C18.0651 7.24967 18.1009 7.19596 18.1465 7.15039C18.1921 7.10156 18.2441 7.06413 18.3027 7.03809C18.3646 7.01204 18.4297 6.99902 18.498 6.99902H27.502C27.5703 6.99902 27.6338 7.01204 27.6924 7.03809C27.7542 7.06413 27.8079 7.10156 27.8535 7.15039C27.8991 7.19596 27.9349 7.24967 27.9609 7.31152C27.987 7.37012 28 7.43359 28 7.50195C28 7.57031 27.987 7.63542 27.9609 7.69727C27.9349 7.75586 27.8991 7.80794 27.8535 7.85352C27.8079 7.89909 27.7542 7.9349 27.6924 7.96094C27.6338 7.98698 27.5703 8 27.502 8H18.498Z" fill="black" fill-opacity="0.8956"/>
</svg>
